<mxfile host="Electron" agent="Mozilla/5.0 (X11; Linux x86_64) AppleWebKit/537.36 (KHTML, like Gecko) draw.io/28.1.2 Chrome/138.0.7204.243 Electron/37.4.0 Safari/537.36" version="28.1.2">
  <diagram name="Page-1" id="-TCx3wRqW-5zkJ1dhHvx">
    <mxGraphModel dx="1106" dy="980" grid="1" gridSize="10" guides="1" tooltips="1" connect="1" arrows="1" fold="1" page="1" pageScale="1" pageWidth="850" pageHeight="1100" math="0" shadow="0">
      <root>
        <mxCell id="0" />
        <mxCell id="1" parent="0" />
        <mxCell id="4uBUJgrUYLANFFD17rUm-1" value="" style="rounded=0;whiteSpace=wrap;html=1;" vertex="1" parent="1">
          <mxGeometry x="120" y="120" width="240" height="200" as="geometry" />
        </mxCell>
        <mxCell id="4uBUJgrUYLANFFD17rUm-4" value="" style="rounded=0;whiteSpace=wrap;html=1;" vertex="1" parent="1">
          <mxGeometry x="360" y="270" width="70" height="50" as="geometry" />
        </mxCell>
        <mxCell id="4uBUJgrUYLANFFD17rUm-5" value="" style="rounded=0;whiteSpace=wrap;html=1;" vertex="1" parent="1">
          <mxGeometry x="360" y="220" width="70" height="50" as="geometry" />
        </mxCell>
        <mxCell id="4uBUJgrUYLANFFD17rUm-6" value="" style="rounded=0;whiteSpace=wrap;html=1;" vertex="1" parent="1">
          <mxGeometry x="200" y="240" width="140" height="50" as="geometry" />
        </mxCell>
        <mxCell id="4uBUJgrUYLANFFD17rUm-7" value="" style="rounded=0;whiteSpace=wrap;html=1;" vertex="1" parent="1">
          <mxGeometry x="360" y="170" width="70" height="50" as="geometry" />
        </mxCell>
        <mxCell id="4uBUJgrUYLANFFD17rUm-8" value="" style="rounded=0;whiteSpace=wrap;html=1;" vertex="1" parent="1">
          <mxGeometry x="360" y="120" width="70" height="50" as="geometry" />
        </mxCell>
        <mxCell id="4uBUJgrUYLANFFD17rUm-9" value="" style="triangle;whiteSpace=wrap;html=1;rotation=-90;fillStyle=solid;strokeColor=default;fillColor=#000000;" vertex="1" parent="1">
          <mxGeometry x="382.5" y="228.75" width="25" height="32.5" as="geometry" />
        </mxCell>
        <mxCell id="4uBUJgrUYLANFFD17rUm-10" value="" style="triangle;whiteSpace=wrap;html=1;rotation=90;fillStyle=solid;strokeColor=default;fillColor=#000000;" vertex="1" parent="1">
          <mxGeometry x="382.5" y="278.75" width="25" height="32.5" as="geometry" />
        </mxCell>
        <mxCell id="4uBUJgrUYLANFFD17rUm-11" value="ACC" style="text;html=1;align=center;verticalAlign=middle;whiteSpace=wrap;rounded=0;" vertex="1" parent="1">
          <mxGeometry x="365" y="180" width="60" height="30" as="geometry" />
        </mxCell>
        <mxCell id="4uBUJgrUYLANFFD17rUm-12" value="" style="ellipse;whiteSpace=wrap;html=1;aspect=fixed;fillColor=#33FF33;" vertex="1" parent="1">
          <mxGeometry x="380" y="130" width="30" height="30" as="geometry" />
        </mxCell>
        <mxCell id="4uBUJgrUYLANFFD17rUm-14" value="Speed km/h" style="text;html=1;align=center;verticalAlign=middle;whiteSpace=wrap;rounded=0;fontSize=18;" vertex="1" parent="1">
          <mxGeometry x="130" y="250" width="60" height="30" as="geometry" />
        </mxCell>
        <mxCell id="4uBUJgrUYLANFFD17rUm-15" value="" style="rounded=0;whiteSpace=wrap;html=1;" vertex="1" parent="1">
          <mxGeometry x="200" y="150" width="140" height="50" as="geometry" />
        </mxCell>
        <mxCell id="4uBUJgrUYLANFFD17rUm-16" value="Dist m" style="text;html=1;align=center;verticalAlign=middle;whiteSpace=wrap;rounded=0;fontSize=18;" vertex="1" parent="1">
          <mxGeometry x="130" y="160" width="60" height="30" as="geometry" />
        </mxCell>
        <mxCell id="4uBUJgrUYLANFFD17rUm-17" value="&lt;font style=&quot;font-size: 24px;&quot;&gt;124&lt;/font&gt;" style="text;html=1;align=center;verticalAlign=middle;whiteSpace=wrap;rounded=0;fontSize=18;" vertex="1" parent="1">
          <mxGeometry x="270" y="250" width="70" height="30" as="geometry" />
        </mxCell>
        <mxCell id="4uBUJgrUYLANFFD17rUm-18" value="&lt;font style=&quot;font-size: 24px;&quot;&gt;435&lt;/font&gt;" style="text;html=1;align=center;verticalAlign=middle;whiteSpace=wrap;rounded=0;fontSize=18;" vertex="1" parent="1">
          <mxGeometry x="270" y="160" width="70" height="30" as="geometry" />
        </mxCell>
        <mxCell id="4uBUJgrUYLANFFD17rUm-20" value="" style="endArrow=none;html=1;rounded=0;strokeWidth=4;" edge="1" parent="1">
          <mxGeometry width="50" height="50" relative="1" as="geometry">
            <mxPoint x="420" y="244.5" as="sourcePoint" />
            <mxPoint x="470" y="244.5" as="targetPoint" />
          </mxGeometry>
        </mxCell>
        <mxCell id="4uBUJgrUYLANFFD17rUm-21" value="" style="endArrow=none;html=1;rounded=0;strokeWidth=4;" edge="1" parent="1">
          <mxGeometry width="50" height="50" relative="1" as="geometry">
            <mxPoint x="420" y="194.5" as="sourcePoint" />
            <mxPoint x="470" y="194.5" as="targetPoint" />
          </mxGeometry>
        </mxCell>
        <mxCell id="4uBUJgrUYLANFFD17rUm-22" value="" style="endArrow=none;html=1;rounded=0;strokeWidth=4;" edge="1" parent="1">
          <mxGeometry width="50" height="50" relative="1" as="geometry">
            <mxPoint x="420" y="144.5" as="sourcePoint" />
            <mxPoint x="470" y="144.5" as="targetPoint" />
          </mxGeometry>
        </mxCell>
        <mxCell id="4uBUJgrUYLANFFD17rUm-23" value="&lt;font style=&quot;font-size: 16px;&quot;&gt;1&lt;/font&gt;" style="text;html=1;align=center;verticalAlign=middle;whiteSpace=wrap;rounded=0;" vertex="1" parent="1">
          <mxGeometry x="460" y="130" width="60" height="30" as="geometry" />
        </mxCell>
        <mxCell id="4uBUJgrUYLANFFD17rUm-24" value="&lt;font style=&quot;font-size: 16px;&quot;&gt;2&lt;/font&gt;" style="text;html=1;align=center;verticalAlign=middle;whiteSpace=wrap;rounded=0;" vertex="1" parent="1">
          <mxGeometry x="460" y="180" width="60" height="30" as="geometry" />
        </mxCell>
        <mxCell id="4uBUJgrUYLANFFD17rUm-25" value="&lt;font style=&quot;font-size: 16px;&quot;&gt;3&lt;/font&gt;" style="text;html=1;align=center;verticalAlign=middle;whiteSpace=wrap;rounded=0;" vertex="1" parent="1">
          <mxGeometry x="460" y="230" width="60" height="30" as="geometry" />
        </mxCell>
        <mxCell id="4uBUJgrUYLANFFD17rUm-26" value="&lt;font style=&quot;font-size: 16px;&quot;&gt;4&lt;/font&gt;" style="text;html=1;align=center;verticalAlign=middle;whiteSpace=wrap;rounded=0;" vertex="1" parent="1">
          <mxGeometry x="460" y="280" width="60" height="30" as="geometry" />
        </mxCell>
        <mxCell id="4uBUJgrUYLANFFD17rUm-29" value="" style="endArrow=none;html=1;rounded=0;strokeWidth=4;" edge="1" parent="1">
          <mxGeometry width="50" height="50" relative="1" as="geometry">
            <mxPoint x="420" y="294.5" as="sourcePoint" />
            <mxPoint x="470" y="294.5" as="targetPoint" />
          </mxGeometry>
        </mxCell>
        <mxCell id="4uBUJgrUYLANFFD17rUm-30" value="" style="endArrow=none;html=1;rounded=0;strokeWidth=4;entryX=0.321;entryY=0.6;entryDx=0;entryDy=0;entryPerimeter=0;" edge="1" parent="1">
          <mxGeometry width="50" height="50" relative="1" as="geometry">
            <mxPoint x="220.06" y="350" as="sourcePoint" />
            <mxPoint x="220.00000000000006" y="270" as="targetPoint" />
          </mxGeometry>
        </mxCell>
        <mxCell id="4uBUJgrUYLANFFD17rUm-31" value="" style="endArrow=none;html=1;rounded=0;strokeWidth=4;entryX=0;entryY=1;entryDx=0;entryDy=0;" edge="1" parent="1" target="4uBUJgrUYLANFFD17rUm-18">
          <mxGeometry width="50" height="50" relative="1" as="geometry">
            <mxPoint x="270.05999999999995" y="350" as="sourcePoint" />
            <mxPoint x="270" y="270" as="targetPoint" />
          </mxGeometry>
        </mxCell>
        <mxCell id="4uBUJgrUYLANFFD17rUm-32" value="&lt;font style=&quot;font-size: 16px;&quot;&gt;5&lt;/font&gt;" style="text;html=1;align=center;verticalAlign=middle;whiteSpace=wrap;rounded=0;" vertex="1" parent="1">
          <mxGeometry x="190" y="350" width="60" height="30" as="geometry" />
        </mxCell>
        <mxCell id="4uBUJgrUYLANFFD17rUm-33" value="&lt;font style=&quot;font-size: 16px;&quot;&gt;6&lt;/font&gt;" style="text;html=1;align=center;verticalAlign=middle;whiteSpace=wrap;rounded=0;" vertex="1" parent="1">
          <mxGeometry x="240" y="350" width="60" height="30" as="geometry" />
        </mxCell>
      </root>
    </mxGraphModel>
  </diagram>
</mxfile>
